<?xml version="1.0" standalone="no"?>
<!DOCTYPE svg PUBLIC "-//W3C//DTD SVG 20010904//EN"
 "http://www.w3.org/TR/2001/REC-SVG-20010904/DTD/svg10.dtd">
<svg version="1.0" xmlns="http://www.w3.org/2000/svg"
 width="500.000000pt" height="500.000000pt" viewBox="0 0 500.000000 500.000000"
 preserveAspectRatio="xMidYMid meet">

<g transform="translate(0.000000,500.000000) scale(0.100000,-0.100000)"
fill="#000000" stroke="none">
<path d="M2523 3334 c-29 -15 -73 -81 -73 -111 0 -6 -49 -55 -109 -108 -60
-53 -114 -108 -120 -123 -8 -20 -11 -143 -9 -416 l3 -388 28 -24 c28 -24 30
-24 253 -24 l225 0 24 25 25 24 0 404 c0 307 -3 407 -12 419 -7 9 -61 59 -121
112 -72 65 -115 96 -131 96 -20 0 -23 -4 -18 -22 3 -13 11 -27 19 -31 7 -4 13
-16 13 -25 0 -33 -41 23 -47 64 -15 114 140 170 205 74 27 -40 26 -98 -4 -131
-18 -20 -14 -36 6 -24 16 10 40 69 40 97 0 37 -34 90 -71 110 -41 22 -84 23
-126 2z m-26 -230 c-10 -10 -37 16 -37 34 0 13 4 12 22 -5 12 -13 19 -25 15
-29z m63 -124 c0 -6 -30 -10 -71 -10 -44 0 -68 4 -64 10 3 6 35 10 71 10 36 0
64 -4 64 -10z m170 -385 l0 -325 -92 -1 c-95 0 -343 0 -365 1 -10 0 -13 72
-13 325 l0 325 235 0 235 0 0 -325z m-210 -370 c20 -24 3 -57 -28 -53 -30 3
-41 30 -22 53 16 19 34 19 50 0z"/>
<path d="M2430 2600 c0 -27 5 -50 10 -50 6 0 10 23 10 50 0 28 -4 50 -10 50
-5 0 -10 -22 -10 -50z"/>
<path d="M2475 2625 c0 -26 10 -34 18 -12 5 14 -2 37 -12 37 -3 0 -6 -11 -6
-25z"/>
<path d="M2380 2580 c0 -16 5 -30 10 -30 6 0 10 14 10 30 0 17 -4 30 -10 30
-5 0 -10 -13 -10 -30z"/>
<path d="M2510 2580 c0 -16 5 -30 10 -30 6 0 10 14 10 30 0 17 -4 30 -10 30
-5 0 -10 -13 -10 -30z"/>
<path d="M2575 2598 c-4 -10 -4 -26 0 -35 8 -17 8 -17 12 0 3 9 3 25 0 35 -4
16 -4 16 -12 0z"/>
<path d="M2615 2581 c0 -22 3 -27 12 -19 9 7 10 16 2 29 -13 25 -14 24 -14
-10z"/>
</g>
</svg>
